<svg height="440pt" viewBox="-62 0 440 440.00403" width="440pt" xmlns="http://www.w3.org/2000/svg"><path d="m111.203125 151.105469c22.09375.003906 40.003906-17.90625 40-40v-61.101563h155.597656c.007813-22.09375-17.90625-40.007812-40-40h-155.597656v61.101563c.003906 22.09375-17.90625 40.003906-40 40h-61.101563v278.898437c-.003906 22.09375 17.90625 40.007813 40 40v-278.898437zm0 0" fill="#d4e1f4"/><path d="m228.601562 215.105469-63.800781-53.5c-.097656-.101563-.199219-.203125-.296875-.203125-.101562-.097656-.300781-.199219-.402344-.296875-.097656-.101563-.199218-.101563-.300781-.203125-.097656-.097656-.296875-.199219-.398437-.296875-.101563-.101563-.300782-.101563-.398438-.203125-.101562-.097656-.300781-.097656-.402344-.199219-.097656-.097656-.300781-.097656-.398437-.199219-.199219-.101562-.300781-.101562-.5-.199218-.101563 0-.300781-.101563-.402344-.101563-.199219 0-.296875-.097656-.5-.097656-.097656 0-.296875-.101563-.398437-.101563-.199219 0-.398438-.101562-.601563-.101562h-.296875c-.632812-.097656-1.273437-.097656-1.902344 0h-.300781c-.199219 0-.398437.101562-.597656.101562-.101563 0-.300781.101563-.402344.101563-.199219 0-.296875.097656-.5.097656-.097656 0-.296875.101563-.398437.101563-.199219.097656-.300782.097656-.5.199218-.101563.101563-.300782.101563-.398438.199219-.203125.101563-.300781.101563-.402344.199219-.097656.101562-.300781.101562-.398437.203125-.152344.074219-.289063.175781-.402344.296875-.097656.101562-.199219.101562-.296875.203125-.152344.074219-.289062.175781-.402344.296875-.097656.101562-.199218.101562-.300781.203125l-63.796875 53.5c-4.226562 3.5625-4.765625 9.875-1.203125 14.097656 3.5625 4.226563 9.875 4.761719 14.101563 1.199219l47.398437-39.699219v146.199219c0 5.523437 4.476563 10 10 10 5.523438 0 10-4.476563 10-10v-146.199219l47.402344 39.699219c4.257813 3.519531 10.554687 2.9375 14.097656-1.296875 3.199219-4.390625 2.457031-10.507813-1.699219-14zm0 0" fill="#1ae5be"/><path d="m266.800781.00390625h-155.597656c-.335937-.01562505-.675781.01562495-1 .10156275-.199219 0-.5.097656-.699219.097656h-.300781c-.300781.101563-.601563.101563-.800781.199219h-.101563c-.269531.085937-.539062.183594-.796875.300781h-.101562c-.285156.09375-.554688.226563-.800782.402344-.054687 0-.097656.042969-.097656.097656-.222656.15625-.457031.289063-.703125.402344-.097656 0-.097656.097656-.199219.097656-.199218.101563-.398437.300781-.597656.402344l-.203125.199219c-.199219.199218-.5.398437-.699219.597656l-.097656.101562-101.800781 101.800782c0 .097656-.101563.097656-.101563.199218-.167968.175782-.300781.378906-.398437.601563 0 .097656-.101563.097656-.101563.199219-.152343.21875-.289062.453124-.398437.699218 0 .054688-.046875.101563-.101563.101563-.152343.253906-.285156.523437-.398437.796875v.101562c-.085937.273438-.183594.539063-.300781.800782v.097656c-.101563.257812-.167969.527344-.199219.800781v.300781c0 .199219-.101563.5-.101563.699219 0 .300781-.09765575.699219-.09765575 1v278.800781c.00781255 27.609375 22.38671875 49.988282 49.99999975 50h216.796875c27.613281-.011718 49.992188-22.390625 50-50v-340c-.007812-27.609375-22.386719-49.988281-50-49.99999975zm-165.597656 34.10156275v37c-.050781 16.546875-13.453125 29.949219-30 30h-37zm195.597656 355.898437c-.046875 16.546875-13.449219 29.953125-30 30h-216.796875c-16.550781-.046875-29.953125-13.453125-30-30v-268.898437h51.097656c27.609376-.011719 49.992188-22.390625 50-50v-51.101563h145.601563c16.546875.046875 29.949219 13.453125 30 30v340zm0 0" fill="#0635c9"/></svg>